<svg id="Layer_1" data-name="Layer 1" xmlns="http://www.w3.org/2000/svg" viewBox="0 0 546 368"><defs><style>.cls-1,.cls-3{fill:#377dff;}.cls-2{fill:#bfd6ff;}.cls-3{stroke:#fff;}.cls-3,.cls-4,.cls-5{stroke-linecap:round;stroke-linejoin:round;stroke-width:3.5px;}.cls-4{fill:none;}.cls-4,.cls-5{stroke:#373435;}.cls-5{fill:#f4ffe9;}.cls-6{fill:#373435;}</style></defs><polygon class="cls-1" points="232.59 36.06 274.57 36.06 293.67 55.17 293.67 122.98 232.59 122.98 232.59 36.06"/><polygon class="cls-2" points="274.54 35.87 273.27 54.75 293.72 55.24 274.54 35.87"/><path class="cls-3" d="M242,98.08c1.62,1.82,5,1.41,9.24-5.79s12.37-21.62,8.77-26-6.73,1.88-5.17,6.26,20,25.84,23.34,17.86c1.28-3.11-3.7-4.6-8.69-5.17-7-.79-15.2,1.46-19,3.29C243.87,91.66,239.49,95.26,242,98.08Z"/><polygon class="cls-1" points="343.12 53.97 371.89 66.88 379.11 85.86 358.24 132.34 316.38 113.54 343.12 53.97"/><polygon class="cls-2" points="371.85 66.78 365.13 80.67 379.09 86.09 371.85 66.78"/><path class="cls-3" d="M329.49,100.33c.55,1.74,3,2.51,8.12-1.13s15.13-11,14-15.12-5.19-.78-5.47,2.7,5.79,23.88,10.5,19.42c1.84-1.74-1.12-4.29-4.37-6.22a30.09,30.09,0,0,0-14-3.6C332.76,96.51,328.64,97.63,329.49,100.33Z"/><polygon class="cls-1" points="142.39 68.07 172.38 58.32 190.46 67.54 206.21 115.99 162.57 130.18 142.39 68.07"/><polygon class="cls-2" points="172.27 58.32 176.13 72.36 190.36 67.52 172.27 58.32"/><path class="cls-3" d="M165.74,109.47c1.57.93,3.91-.15,5.25-6.28s3.83-18.32.23-20.61-4.37,2.9-2.23,5.67,20.32,13.81,20.82,7.34c.19-2.52-3.72-2.43-7.42-1.67a30.13,30.13,0,0,0-12.83,6.76C165.59,104.45,163.29,108,165.74,109.47Z"/><path class="cls-4" d="M144.22,154.1H377.73a10.85,10.85,0,0,1,10.85,10.85V310.83a0,0,0,0,1,0,0H133.37a0,0,0,0,1,0,0V164.95A10.85,10.85,0,0,1,144.22,154.1Z"/><line class="cls-5" x1="135.83" y1="176.56" x2="386.83" y2="176.56"/><polyline class="cls-4" points="293.1 255.9 293.1 286.44 227.1 286.44 227.1 193.06 293.1 193.06 293.1 221.5"/><polyline class="cls-4" points="225.35 199.38 219.03 199.38 219.03 293.11 280.46 293.11 280.46 287.14"/><line class="cls-5" x1="235.88" y1="206.75" x2="248.87" y2="206.75"/><line class="cls-5" x1="253.08" y1="206.4" x2="257.29" y2="206.4"/><rect class="cls-4" x="271.34" y="202.89" width="14.04" height="6.67"/><line class="cls-5" x1="235.53" y1="217.64" x2="286.43" y2="217.64"/><line class="cls-5" x1="235.53" y1="228.52" x2="286.43" y2="228.52"/><line class="cls-5" x1="235.53" y1="239.75" x2="270.63" y2="239.75"/><line class="cls-5" x1="235.53" y1="251.69" x2="261.15" y2="251.69"/><line class="cls-5" x1="235.53" y1="263.98" x2="254.84" y2="263.98"/><line class="cls-5" x1="235.53" y1="274.16" x2="254.84" y2="274.16"/><polygon class="cls-4" points="266.77 256.95 298.44 224.41 305.04 217.64 314.34 226.94 276.6 264.68 263.96 269.59 266.77 256.95"/><line class="cls-5" x1="306.44" y1="233.43" x2="298.72" y2="225.71"/><line class="cls-5" x1="268.53" y1="256.6" x2="276.6" y2="264.68"/><line class="cls-5" x1="274.85" y1="248.88" x2="282.92" y2="256.95"/><rect class="cls-5" x="280.52" y="273.81" width="5.97" height="5.97"/><path class="cls-4" d="M328.91,229.57,340.84,258s1.41-7.73,2.81-7.37,14.22,14.21,14.22,14.21l6.49-6.49-14-14,7-3.16Z"/><polyline class="cls-4" points="160.75 229.22 160.4 239.75 169.88 240.46"/><path class="cls-4" d="M196.56,236.24s-19-16.5-36.16,3.51"/><polyline class="cls-4" points="196.21 265.03 196.56 254.5 187.08 253.79"/><path class="cls-4" d="M160.4,258s19,16.5,36.16-3.51"/><rect class="cls-5" x="323.99" y="164.08" width="4.21" height="4.21"/><rect class="cls-5" x="344.7" y="164.08" width="4.21" height="4.21"/><rect class="cls-5" x="364.71" y="164.08" width="4.21" height="4.21"/><path class="cls-6" d="M104.94,312.52h0m310,0h0m0,0-2.34,4.24a32.34,32.34,0,0,1-28.29,16.65H136a32.37,32.37,0,0,1-27.48-15.27c-1.93-3.12-3.43-5.5-3.57-5.62h310m-310-3.5a3.5,3.5,0,0,0-3.5,3.5,3.54,3.54,0,0,0,.84,2.29c.24.34,1,1.48,3.27,5.17A35.64,35.64,0,0,0,136,336.91H384.28a35.87,35.87,0,0,0,31.35-18.46l2.29-4.12a3.59,3.59,0,0,0,.5-1.81,3.5,3.5,0,0,0-3.5-3.5h-310Zm310,7h0Z"/><polygon class="cls-2" points="90.31 216.68 99.68 224 111.51 225.11 104.19 234.47 103.08 246.3 93.72 238.99 81.89 237.88 89.2 228.51 90.31 216.68"/><polygon class="cls-2" points="58.97 189.69 68.33 197.01 80.17 198.11 72.85 207.48 71.74 219.31 62.38 211.99 50.54 210.89 57.86 201.52 58.97 189.69"/><polygon class="cls-2" points="55.36 241.96 67.74 251.63 83.38 253.09 73.71 265.48 72.25 281.12 59.86 271.44 44.22 269.98 53.89 257.6 55.36 241.96"/><polygon class="cls-2" points="479.91 237.54 489.78 250.16 504.9 255.47 492.28 265.33 486.97 280.45 477.1 267.83 461.99 262.53 474.61 252.66 479.91 237.54"/><polygon class="cls-2" points="428.6 225 434.88 233.03 444.49 236.4 436.46 242.67 433.09 252.28 426.82 244.26 417.21 240.88 425.23 234.61 428.6 225"/><polygon class="cls-2" points="445.5 186.04 451.4 193.58 460.43 196.75 452.89 202.65 449.72 211.69 443.82 204.14 434.78 200.97 442.33 195.07 445.5 186.04"/><polygon class="cls-2" points="494.17 189.34 499.59 196.27 507.89 199.19 500.96 204.61 498.04 212.91 492.62 205.98 484.32 203.06 491.25 197.64 494.17 189.34"/><circle class="cls-2" cx="510.74" cy="157.79" r="5.48"/><circle class="cls-2" cx="487.47" cy="126.62" r="3.89"/><circle class="cls-2" cx="89.05" cy="180.84" r="3.69"/><circle class="cls-2" cx="57.52" cy="144.15" r="2.9"/><circle class="cls-2" cx="33.21" cy="229.31" r="3.42"/></svg>