<?xml version="1.0" encoding="UTF-8"?>
<!DOCTYPE svg PUBLIC "-//W3C//DTD SVG 1.1//EN" "http://www.w3.org/Graphics/SVG/1.1/DTD/svg11.dtd">
<!-- Creator: CorelDRAW 2021.5 -->
<svg xmlns="http://www.w3.org/2000/svg" xml:space="preserve" width="6.09956in" height="1.41114in" version="1.1" style="shape-rendering:geometricPrecision; text-rendering:geometricPrecision; image-rendering:optimizeQuality; fill-rule:evenodd; clip-rule:evenodd"
viewBox="0 0 6099.56 1411.14"
 xmlns:xlink="http://www.w3.org/1999/xlink"
 xmlns:xodm="http://www.corel.com/coreldraw/odm/2003">
 <defs>
  <style type="text/css">
   <![CDATA[
    .str0 {stroke:#F1F1F2;stroke-width:3;stroke-miterlimit:2.61313}
    .fil2 {fill:none;fill-rule:nonzero}
    .fil1 {fill:#FEFEFE}
    .fil0 {fill:#1F6EED}
    .fil5 {fill:#FEFEFE;fill-rule:nonzero}
    .fil4 {fill:#373435;fill-rule:nonzero}
    .fil3 {fill:#373435;fill-rule:nonzero}
   ]]>
  </style>
 </defs>
 <g id="Layer_x0020_1">
  <metadata id="CorelCorpID_0Corel-Layer"/>
  <g id="_1594884080944">
   <path class="fil0" d="M1.35 190.1c0,293.6 -30.3,523.02 196.57,734.63 8.86,8.26 12,13.06 21.54,20.42 41.92,32.33 47.11,37.85 97.3,64.84 19.57,10.52 93.41,43.72 116.92,44.26 20.97,0.48 100.28,-34.05 117.54,-43.58 49.75,-27.48 55.62,-35.16 96.28,-65.69 53.22,-39.96 113.09,-121.19 144.89,-179.37 95.57,-174.82 73.41,-360.17 73.41,-575.51 -24.86,-7.62 -175.64,-78.2 -216.11,-95.4 -25.15,-10.69 -208.46,-94.7 -216.12,-94.7l-324.5 142.48c-31.76,13.63 -76.88,38.16 -107.73,47.62z"/>
   <path class="fil1" d="M912.8 304.53c38.68,-25.23 77.35,-47.67 115.18,-67.22 29.72,-15.31 41.39,-51.83 26.07,-81.55 -15.31,-29.72 -51.83,-41.39 -81.55,-26.07 -38.56,19.92 -68.96,36.17 -108.34,61.48 -73.76,47.4 -168.83,116.89 -238.07,182.22 -70.59,66.61 -136.49,142.35 -192.66,226.61 -43.41,-59.02 -89.56,-116.04 -143.33,-162.75 -25.26,-21.87 -63.48,-19.1 -85.34,6.16 -21.86,25.27 -19.1,63.48 6.16,85.35 64.1,55.68 119.39,133.72 173.14,209.61l0.11 0.15 -0.11 0.07 4.12 5.82c19.37,27.23 57.16,33.6 84.4,14.22 8.16,-5.8 14.44,-13.27 18.72,-21.6 58.33,-104.42 134.3,-196.72 217.75,-275.46 61.24,-57.78 138.62,-114.56 203.75,-157.04z"/>
   <g>
    <path class="fil2 str0" d="M851.94 210.62c1.54,0 2.78,1.25 2.78,2.78 0,1.54 -1.24,2.78 -2.78,2.78 -1.54,0 -2.78,-1.24 -2.78,-2.78 0,-1.54 1.24,-2.78 2.78,-2.78zm2.71 5.77c0.08,0.26 0.12,0.54 0.12,0.83 0,1.56 -1.27,2.83 -2.83,2.83 -1.57,0 -2.84,-1.27 -2.84,-2.83 0,-0.29 0.04,-0.57 0.13,-0.83l0 0c0,-0.02 0.01,-0.04 0.01,-0.06 0,-0.12 -0.1,-0.22 -0.22,-0.22 -0.02,0 -0.05,0 -0.07,0.01l0 0c-0.26,0.08 -0.54,0.12 -0.83,0.12 -1.57,0 -2.84,-1.27 -2.84,-2.83 0,-1.57 1.27,-2.84 2.84,-2.84 0.29,0 0.57,0.04 0.83,0.12 0.02,0.01 0.04,0.01 0.07,0.01 0.12,0 0.22,-0.1 0.22,-0.22 0,-0.02 -0,-0.05 -0.01,-0.07l0 0c-0.08,-0.26 -0.13,-0.54 -0.13,-0.83 0,-1.57 1.27,-2.84 2.84,-2.84 1.57,0 2.83,1.27 2.83,2.84 0,0.29 -0.04,0.56 -0.12,0.83l0 0c-0,0.02 -0.01,0.04 -0.01,0.06 0,0.12 0.1,0.22 0.22,0.22 0.02,0 0.04,-0 0.07,-0.01l-0 0c0.26,-0.08 0.54,-0.13 0.83,-0.13 1.57,0 2.83,1.27 2.83,2.84 0,1.56 -1.27,2.83 -2.83,2.83 -0.29,0 -0.57,-0.04 -0.83,-0.12l0 0c-0.02,-0.01 -0.04,-0.01 -0.07,-0.01 -0.12,0 -0.22,0.1 -0.22,0.22 0,0.02 0,0.04 0.01,0.06l0 0zm-4.41 0.51c-0.02,0.11 -0.03,0.21 -0.03,0.32 0,0.95 0.77,1.73 1.73,1.73 0.96,0 1.73,-0.78 1.73,-1.73 0,-0.11 -0.01,-0.22 -0.03,-0.32 -0.52,0.25 -1.09,0.39 -1.7,0.39 -0.61,0 -1.19,-0.14 -1.7,-0.39zm5.2 -1.8c0.11,0.02 0.21,0.03 0.32,0.03 0.96,0 1.73,-0.78 1.73,-1.73 0,-0.96 -0.77,-1.73 -1.73,-1.73 -0.11,0 -0.22,0.01 -0.32,0.03l0 0c0.25,0.51 0.39,1.09 0.39,1.7 0,0.61 -0.14,1.19 -0.39,1.7zm-1.8 -5.2l0 0c0.02,-0.1 0.03,-0.21 0.03,-0.32 0,-0.96 -0.77,-1.73 -1.73,-1.73 -0.96,0 -1.73,0.78 -1.73,1.73 0,0.11 0.01,0.22 0.03,0.32 0.52,-0.25 1.09,-0.39 1.7,-0.39 0.61,0 1.19,0.14 1.7,0.39zm-5.2 1.8c-0.11,-0.02 -0.21,-0.03 -0.32,-0.03 -0.96,0 -1.73,0.78 -1.73,1.73 0,0.95 0.77,1.73 1.73,1.73 0.11,0 0.22,-0.01 0.32,-0.03 -0.25,-0.51 -0.39,-1.09 -0.39,-1.7 0,-0.61 0.14,-1.19 0.39,-1.7zm3.5 1.07c0.34,0 0.62,0.28 0.62,0.63 0,0.34 -0.28,0.62 -0.62,0.62 -0.34,0 -0.62,-0.28 -0.62,-0.62 0,-0.35 0.28,-0.63 0.62,-0.63zm0 -1.46c1.15,0 2.09,0.94 2.09,2.09 0,1.15 -0.94,2.09 -2.09,2.09 -1.15,0 -2.09,-0.93 -2.09,-2.09 0,-1.15 0.94,-2.09 2.09,-2.09zm0 1c0.6,0 1.09,0.49 1.09,1.09 0,0.6 -0.49,1.09 -1.09,1.09 -0.6,0 -1.09,-0.49 -1.09,-1.09 0,-0.61 0.49,-1.09 1.09,-1.09z"/>
   </g>
   <path class="fil0" d="M865.8 190.1c0,49.82 1.19,98.04 1.83,144.9 15.46,-10.77 30.62,-20.98 45.17,-30.47 38.68,-25.23 77.35,-47.67 115.18,-67.22 29.72,-15.31 41.39,-51.83 26.07,-81.55 -15.31,-29.72 -51.83,-41.39 -81.55,-26.07 -38.02,19.64 -68.11,35.72 -106.7,60.41z"/>
   <path class="fil3" d="M1812.64 304.5c60.22,0 108.36,19.61 144.42,58.82 36.06,39.21 54.09,91.73 54.09,157.55l0 323.5 -135.49 0 0 -314.04c0,-31.51 -7.7,-56.02 -23.11,-73.52 -15.41,-17.5 -37.11,-26.26 -65.12,-26.26 -30.81,0 -54.79,10.15 -71.95,30.46 -17.15,20.31 -25.73,49.72 -25.73,88.23l0 295.14 -135.49 0 0 -314.04c0,-31.51 -7.7,-56.02 -23.11,-73.52 -15.4,-17.5 -37.11,-26.26 -65.12,-26.26 -30.11,0 -54.09,10.15 -71.94,30.46 -17.86,20.31 -26.78,49.72 -26.78,88.23l0 295.14 -135.49 0 0 -525.16 135.49 0 0 55.67c31.51,-46.91 80.17,-70.37 145.99,-70.37 64.42,0 112.04,25.21 142.84,75.62 35.01,-50.41 87.18,-75.62 156.5,-75.62z"/>
   <path id="_1" class="fil3" d="M2438.35 319.2l144.94 0 -191.51 526.03c-27.31,74.93 -63.54,129.54 -108.53,163.5 -45.17,33.96 -101.18,49.19 -168.4,45.69l0 -126.04c36.41,0.7 65.3,-7 86.65,-23.11 21.36,-16.1 38.34,-42.01 50.94,-77.72l-215.32 -508.35 148.1 0 136.89 352.91 116.23 -352.91z"/>
   <polygon id="_2" class="fil3" points="2634.47,109.14 2779.41,109.14 2779.41,844.36 2634.47,844.36 "/>
   <polygon id="_3" class="fil3" points="3383.06,109.14 3383.06,247.78 3184.55,247.78 3184.55,844.36 3039.6,844.36 3039.6,247.78 2842.14,247.78 2842.14,109.14 "/>
   <path id="_4" class="fil3" d="M3507.76 409.53c12.6,-33.61 33.43,-58.82 62.49,-75.62 29.06,-16.81 61.44,-25.21 97.15,-25.21l0 151.25c-41.31,-4.9 -78.25,3.5 -110.81,25.2 -32.56,21.71 -48.84,57.77 -48.84,108.19l0 251.02 -135.49 0 0 -525.16 135.49 0 0 90.33z"/>
   <path id="_5" class="fil3" d="M3821.52 637.45c18.2,65.82 67.57,98.73 148.09,98.73 51.81,0 91.03,-17.51 117.64,-52.52l109.23 63.02c-51.81,74.93 -128.14,112.39 -228.97,112.39 -86.82,0 -156.5,-26.26 -209.01,-78.78 -52.52,-52.52 -78.77,-118.69 -78.77,-198.51 0,-79.12 25.91,-145.12 77.72,-197.98 51.82,-52.87 118.34,-79.3 199.56,-79.3 77.02,0 140.57,26.61 190.63,79.82 50.07,53.22 75.1,119.04 75.1,197.46 0,17.5 -1.75,36.06 -5.25,55.67l-395.97 0zm-2.1 -105.03l267.83 0c-7.7,-35.71 -23.63,-62.32 -47.79,-79.82 -24.16,-17.5 -51.64,-26.26 -82.45,-26.26 -36.41,0 -66.52,9.28 -90.33,27.83 -23.81,18.56 -39.56,44.64 -47.27,78.25z"/>
   <path id="_6" class="fil3" d="M4582.71 449.44l-118.69 0 0 218.46c0,18.2 4.55,31.51 13.65,39.91 9.1,8.4 22.41,13.13 39.91,14.18 17.5,1.05 39.21,0.87 65.12,-0.52l0 122.89c-93.13,10.5 -158.77,1.75 -196.93,-26.26 -38.16,-28.01 -57.24,-78.07 -57.24,-150.2l0 -218.46 -91.38 0 0 -130.24 91.38 0 0 -106.08 135.49 -40.96 0 147.04 118.69 0 0 130.24z"/>
   <path id="_7" class="fil3" d="M5014.1 319.2l135.5 0 0 525.16 -135.5 0 0 -58.82c-32.91,49.02 -85.07,73.52 -156.5,73.52 -57.42,0 -104.85,-19.26 -142.31,-57.77 -37.46,-38.51 -56.19,-91.73 -56.19,-159.65l0 -322.44 135.49 0 0 305.64c0,35.01 9.45,61.8 28.36,80.35 18.91,18.56 44.11,27.83 75.63,27.83 35.01,0 63.02,-10.85 84.02,-32.56 21.01,-21.7 31.51,-54.26 31.51,-97.68l0 -283.59z"/>
   <path id="_8" class="fil3" d="M5389.83 409.53c12.6,-33.61 33.43,-58.82 62.49,-75.62 29.06,-16.81 61.44,-25.21 97.15,-25.21l0 151.25c-41.31,-4.9 -78.25,3.5 -110.81,25.2 -32.56,21.71 -48.84,57.77 -48.84,108.19l0 251.02 -135.49 0 0 -525.16 135.49 0 0 90.33z"/>
   <path id="_9" class="fil3" d="M5901.05 304.5c57.42,0 104.85,19.26 142.32,57.77 37.46,38.51 56.19,91.73 56.19,159.65l0 322.44 -135.49 0 0 -305.64c0,-35.01 -9.45,-61.8 -28.36,-80.35 -18.91,-18.56 -44.11,-27.83 -75.63,-27.83 -35.01,0 -63.02,10.85 -84.02,32.56 -21.01,21.7 -31.51,54.26 -31.51,97.68l0 283.59 -135.49 0 0 -525.16 135.49 0 0 58.82c32.91,-49.02 85.07,-73.52 156.5,-73.52z"/>
   <path class="fil4" d="M2639.83 1255.14l27.7 0c0,1.36 0.07,2.65 0.2,3.87 0.13,1.22 0.34,2.51 0.61,3.87 0,2.17 0.14,4.21 0.41,6.11 0.27,1.9 0.41,3.94 0.41,6.11 1.36,11.68 5.16,22.4 11.41,32.18 6.24,9.78 19.82,14.66 40.73,14.66 14.12,0 25.59,-4.07 34.42,-12.22 8.82,-8.15 13.24,-19.82 13.24,-35.03l0 -7.74c0,-1.09 0,-2.17 0,-3.26 0,-1.08 -0.13,-2.17 -0.41,-3.26 -0.27,-6.52 -2.17,-12.63 -5.7,-18.33 -3.53,-5.7 -10.86,-10.05 -21.99,-13.03 -7.87,-2.72 -16.83,-5.84 -26.88,-9.37 -10.05,-3.53 -20.37,-7.33 -30.96,-11.4 -0.54,-0.27 -1.15,-0.54 -1.83,-0.81 -0.68,-0.27 -1.43,-0.54 -2.24,-0.81 -8.96,-4.07 -15.89,-8.48 -20.77,-13.24 -4.89,-4.75 -8.56,-9.57 -11,-14.46 -2.17,-4.35 -3.59,-8.56 -4.28,-12.63 -0.68,-4.07 -1.02,-8.01 -1.02,-11.81 0,-0.54 0,-1.02 0,-1.43 0,-0.41 0,-0.89 0,-1.43 0,-0.54 0.07,-1.16 0.2,-1.83 0.14,-0.68 0.2,-1.43 0.2,-2.24 0,-1.09 0.07,-2.11 0.2,-3.06 0.13,-0.95 0.2,-1.83 0.2,-2.65 0,-2.72 0.14,-5.57 0.41,-8.56 0.27,-2.99 0.81,-5.97 1.63,-8.96 2.71,-13.3 9.7,-25.52 20.98,-36.66 11.27,-11.13 28.98,-16.7 53.15,-16.7 22.81,0 39.37,4.41 49.69,13.24 10.32,8.82 17.38,18.67 21.18,29.53 1.9,6.25 3.12,12.35 3.67,18.33 0.54,5.97 0.81,11 0.81,15.07l-30.95 0c0,-16.84 -4.28,-28.92 -12.83,-36.25 -8.56,-7.33 -19.07,-11 -31.57,-11 -15.75,0 -27.29,4.69 -34.62,14.05 -7.33,9.37 -11,19.62 -11,30.75l-0.81 2.04c0,12.76 5.09,22 15.27,27.7 10.18,5.7 22.06,10.72 35.64,15.07 2.44,0.81 4.82,1.63 7.13,2.44 2.31,0.81 4.82,1.63 7.54,2.44 16.29,5.43 31.22,13.04 44.8,22.81 13.57,9.78 20.36,26.07 20.36,48.87 0,29.6 -7.54,50.5 -22.6,62.72 -15.07,12.22 -31.7,19.01 -49.9,20.37 -1.63,0.27 -3.19,0.41 -4.68,0.41 -1.5,0 -3.06,0 -4.69,0 -37.74,0 -60.76,-9.7 -69.04,-29.12 -8.28,-19.41 -12.43,-40.8 -12.43,-64.15 0,-0.27 0,-0.47 0,-0.61 0,-0.13 0,-0.34 0,-0.61z"/>
   <path id="_1_0" class="fil4" d="M2834.93 1294.24c0,-16.83 2.72,-29.46 8.15,-37.88 5.43,-8.42 13.04,-14.66 22.81,-18.74l44.8 -16.7c4.62,-1.36 8.62,-3.12 12.02,-5.3 3.39,-2.17 5.09,-6.11 5.09,-11.81l0 -19.55c0,-0.27 0,-0.61 0,-1.02 0,-0.41 0,-0.74 0,-1.02 -0.27,-5.16 -2.37,-9.91 -6.31,-14.26 -3.94,-4.35 -11.34,-6.52 -22.2,-6.52 -12.49,0 -20.7,2.99 -24.64,8.96 -3.94,5.98 -5.91,15.34 -5.91,28.11l-25.25 0c0,-0.54 0,-1.02 0,-1.43 0,-0.41 -0.14,-0.89 -0.41,-1.43 0,-0.54 -0.07,-1.02 -0.2,-1.43 -0.13,-0.41 -0.2,-0.88 -0.2,-1.43 -0.27,-0.81 -0.48,-1.63 -0.61,-2.44 -0.13,-0.81 -0.2,-1.63 -0.2,-2.44 0,-17.65 5.84,-30.69 17.51,-39.1 11.68,-8.42 24.98,-12.63 39.92,-12.63 22.54,0 37.61,4.41 45.21,13.24 7.6,8.82 12.08,18.67 13.44,29.53 0.27,3.26 0.48,6.58 0.61,9.98 0.14,3.39 0.2,6.58 0.2,9.57l0 103.86c0,7.06 1.43,11.61 4.28,13.64 2.85,2.04 6.99,3.06 12.43,3.06l0 22.4c-1.09,0 -2.17,0 -3.26,0 -1.09,0 -2.31,0.14 -3.67,0.41 0,0 -0.14,0 -0.41,0 -0.27,0 -0.41,0 -0.41,0 -1.36,0 -2.72,0.07 -4.07,0.2 -1.35,0.14 -2.58,0.2 -3.67,0.2 -8.96,0 -15.81,-1.76 -20.57,-5.3 -4.75,-3.53 -7.67,-10.32 -8.76,-20.37 -4.89,9.78 -10.86,16.97 -17.92,21.59 -7.06,4.62 -14.26,7.33 -21.59,8.15 -1.09,0.27 -2.11,0.41 -3.06,0.41 -0.95,0 -1.83,0 -2.65,0 -20.91,-1.36 -34.55,-6.99 -40.93,-16.9 -6.38,-9.91 -9.57,-21.79 -9.57,-35.64zm92.86 -56.61c-2.98,1.63 -6.04,3.06 -9.16,4.28 -3.12,1.22 -6.18,2.37 -9.17,3.46 -0.54,0.27 -1.02,0.48 -1.43,0.61 -0.41,0.14 -0.88,0.34 -1.43,0.61 -10.32,3.8 -19.69,8.49 -28.1,14.05 -8.42,5.57 -12.63,15.82 -12.63,30.75 0,10.05 2.51,17.58 7.54,22.61 5.02,5.02 10.93,7.54 17.72,7.54 1.35,0 2.85,-0.14 4.48,-0.41 1.63,-0.27 3.26,-0.68 4.89,-1.22 6.24,-1.9 12.08,-5.84 17.52,-11.81 5.43,-5.97 8.69,-13.44 9.77,-22.4l0 -48.06z"/>
   <path id="_2_1" class="fil4" d="M3015.78 1341.49l0 -176.77 -28.11 0 0 -25.66 28.11 0 0 -30.95c0,-13.85 3.73,-23.56 11.2,-29.12 7.46,-5.57 15.68,-9.03 24.64,-10.39 1.9,-0.27 3.8,-0.48 5.7,-0.61 1.9,-0.14 3.8,-0.2 5.7,-0.2 0.81,0 1.7,0 2.65,0 0.95,0 1.83,0.13 2.65,0.41 0.54,0 1.02,0 1.43,0 0.41,0 0.88,0 1.43,0 1.09,0 2.24,0.07 3.46,0.2 1.22,0.14 2.24,0.2 3.06,0.2l0 25.66 -13.85 0c-4.89,0 -9.3,1.15 -13.24,3.46 -3.94,2.31 -6.31,7.67 -7.13,16.09l0 25.25 34.22 0 0 25.66 -31.36 0 0 176.77 -30.55 0z"/>
   <path id="_3_2" class="fil4" d="M3098.46 1240.48c0,-5.7 0.27,-12.56 0.81,-20.57 0.54,-8.01 1.76,-16.22 3.67,-24.64 3.53,-14.93 9.78,-28.51 18.74,-40.73 8.96,-12.22 22.67,-18.33 41.14,-18.33 20.91,0 35.57,6.31 43.99,18.94 8.42,12.63 13.85,26.54 16.29,41.75 0.81,5.97 1.36,11.88 1.63,17.72 0.27,5.84 0.41,11.2 0.41,16.09l0 15.07 -95.71 0c0,0.81 -0.07,1.77 -0.2,2.85 -0.14,1.08 -0.2,2.17 -0.2,3.26 0,0.27 0,0.54 0,0.81 0,0.27 0,0.41 0,0.41 -0.27,1.08 -0.41,2.04 -0.41,2.85 0,0.81 0,1.63 0,2.44 0,2.72 0.07,5.57 0.2,8.56 0.14,2.99 0.2,5.97 0.2,8.96 0.81,12.22 3.53,23.42 8.15,33.6 4.62,10.18 13.17,15.27 25.66,15.27 11.68,0 19.55,-2.98 23.62,-8.96 4.07,-5.97 6.52,-12.49 7.33,-19.55 0.27,-1.9 0.41,-3.74 0.41,-5.5 0,-1.76 0,-3.46 0,-5.09l0 -8.56 28.1 0 0 6.52c0,18.19 -3.46,31.91 -10.39,41.13 -6.93,9.23 -14.46,15.61 -22.61,19.15 -5.16,2.17 -10.04,3.67 -14.66,4.48 -4.61,0.81 -8.55,1.22 -11.81,1.22 -20.09,0 -34.55,-6.31 -43.38,-18.94 -8.82,-12.63 -14.73,-26.54 -17.72,-41.75 -1.63,-9.23 -2.58,-18.13 -2.85,-26.68 -0.27,-8.55 -0.41,-15.81 -0.41,-21.79zm95.72 -19.55c0,-1.36 0,-2.72 0,-4.07 0,-1.36 0,-2.72 0,-4.07 -0.27,-12.76 -2.31,-24.51 -6.11,-35.23 -3.8,-10.72 -12.22,-16.09 -25.25,-16.09 -11.13,0 -19.01,3.94 -23.62,11.81 -4.62,7.87 -7.47,16.56 -8.56,26.07 -0.54,3.8 -0.88,7.54 -1.02,11.2 -0.13,3.67 -0.2,7.13 -0.2,10.39l64.76 0z"/>
   <path id="_4_3" class="fil4" d="M3271.97 1344.34l0 -39.1 36.65 0 0 33.4c0,17.11 -3.19,29.8 -9.57,38.08 -6.38,8.28 -13.51,13.78 -21.38,16.5 -0.81,0.27 -1.7,0.47 -2.65,0.61 -0.95,0.13 -1.97,0.34 -3.06,0.61l0 -16.7c5.97,-2.17 10.04,-5.22 12.22,-9.16 2.17,-3.94 3.67,-8.22 4.48,-12.83 0.27,-1.9 0.41,-3.87 0.41,-5.91 0,-2.04 0,-4 0,-5.91l-17.11 0.41z"/>
   <path id="_5_4" class="fil4" d="M3407.6 1341.49l75.76 -266.78 42.36 0 73.31 266.78 -34.21 0 -19.55 -75.35 -84.31 0 -19.55 75.35 -33.81 0zm129.52 -103.86l-33.81 -137.67 -34.21 137.67 68.02 0z"/>
   <path id="_6_5" class="fil4" d="M3619.81 1245.77c0,-1.63 0,-3.32 0,-5.09 0,-1.76 0,-3.46 0,-5.09 0.54,-24.98 5.16,-47.93 13.85,-68.83 8.69,-20.91 27.43,-32.04 56.2,-33.4 16.02,0 29.87,6.65 41.55,19.96 11.67,13.31 17.51,28.51 17.51,45.62l0 4.89 -27.7 0c0,-1.36 0,-2.65 0,-3.87 0,-1.22 -0.13,-2.38 -0.41,-3.46 -1.09,-8.69 -4.01,-16.7 -8.76,-24.03 -4.75,-7.33 -12.15,-11 -22.2,-11 -12.49,0 -21.52,4.82 -27.08,14.46 -5.57,9.64 -9.17,20.16 -10.8,31.57 -0.81,5.16 -1.36,10.32 -1.63,15.48 -0.27,5.16 -0.41,9.78 -0.41,13.85 0,0.81 0.07,1.7 0.2,2.65 0.14,0.95 0.2,1.7 0.2,2.24 0,0.81 0.07,1.56 0.2,2.24 0.13,0.68 0.2,1.29 0.2,1.83 0,4.07 0,8.28 0,12.63 0,4.35 0.27,8.83 0.81,13.44 0.81,12.76 3.53,24.44 8.15,35.03 4.61,10.59 13.44,15.88 26.47,15.88 0.27,0 0.54,-0.07 0.81,-0.2 0.27,-0.13 0.68,-0.2 1.22,-0.2 0.27,0 0.54,-0.07 0.81,-0.2 0.27,-0.13 0.54,-0.2 0.81,-0.2 11.41,0 19.48,-4.55 24.24,-13.64 4.75,-9.1 7.13,-21.25 7.13,-36.46l27.7 0c0,4.07 -0.27,9.03 -0.81,14.87 -0.54,5.83 -1.63,11.74 -3.26,17.72 -3.26,10.86 -8.96,20.63 -17.11,29.32 -8.15,8.69 -20.77,13.04 -37.88,13.04 -27.97,0 -46.63,-9.44 -56,-28.31 -9.37,-18.87 -14.05,-43.11 -14.05,-72.7z"/>
   <path id="_7_6" class="fil4" d="M3779.47 1245.77c0,-1.63 0,-3.32 0,-5.09 0,-1.76 0,-3.46 0,-5.09 0.54,-24.98 5.16,-47.93 13.85,-68.83 8.69,-20.91 27.43,-32.04 56.2,-33.4 16.02,0 29.87,6.65 41.55,19.96 11.67,13.31 17.51,28.51 17.51,45.62l0 4.89 -27.7 0c0,-1.36 0,-2.65 0,-3.87 0,-1.22 -0.13,-2.38 -0.41,-3.46 -1.09,-8.69 -4.01,-16.7 -8.76,-24.03 -4.75,-7.33 -12.15,-11 -22.2,-11 -12.49,0 -21.52,4.82 -27.08,14.46 -5.57,9.64 -9.17,20.16 -10.8,31.57 -0.81,5.16 -1.36,10.32 -1.63,15.48 -0.27,5.16 -0.41,9.78 -0.41,13.85 0,0.81 0.07,1.7 0.2,2.65 0.14,0.95 0.2,1.7 0.2,2.24 0,0.81 0.07,1.56 0.2,2.24 0.13,0.68 0.2,1.29 0.2,1.83 0,4.07 0,8.28 0,12.63 0,4.35 0.27,8.83 0.81,13.44 0.81,12.76 3.53,24.44 8.15,35.03 4.61,10.59 13.44,15.88 26.47,15.88 0.27,0 0.54,-0.07 0.81,-0.2 0.27,-0.13 0.68,-0.2 1.22,-0.2 0.27,0 0.54,-0.07 0.81,-0.2 0.27,-0.13 0.54,-0.2 0.81,-0.2 11.41,0 19.48,-4.55 24.24,-13.64 4.75,-9.1 7.13,-21.25 7.13,-36.46l27.7 0c0,4.07 -0.27,9.03 -0.81,14.87 -0.54,5.83 -1.63,11.74 -3.26,17.72 -3.26,10.86 -8.96,20.63 -17.11,29.32 -8.15,8.69 -20.77,13.04 -37.88,13.04 -27.97,0 -46.63,-9.44 -56,-28.31 -9.37,-18.87 -14.05,-43.11 -14.05,-72.7z"/>
   <path id="_8_7" class="fil4" d="M3953.8 1141.91l28.1 0 0 155.18c0,10.04 2.17,17.44 6.52,22.2 4.35,4.75 9.64,7.13 15.89,7.13 1.9,0 3.8,-0.2 5.7,-0.61 1.9,-0.41 3.94,-0.88 6.11,-1.43 8.42,-3.26 16.09,-8.89 23.01,-16.9 6.93,-8.01 10.39,-17.18 10.39,-27.49l0 -138.07 28.11 0 0 199.57 -28.11 0 0 -24.85c-3.8,6.79 -7.87,12.22 -12.22,16.3 -4.35,4.07 -8.83,7.19 -13.44,9.37 -3.8,1.63 -7.67,2.78 -11.61,3.46 -3.94,0.68 -7.54,1.02 -10.79,1.02 -15.48,0 -27.29,-4.21 -35.44,-12.63 -8.15,-8.42 -12.22,-21.72 -12.22,-39.92l0 -152.33z"/>
   <path id="_9_8" class="fil4" d="M4140.74 1341.49l0 -199.57 28.1 0 0 31.36c5.43,-13.04 12.76,-22 22,-26.88 9.23,-4.89 21.72,-7.33 37.47,-7.33l0 31.36c-0.81,0 -1.63,0 -2.44,0 -0.81,0 -1.77,-0.13 -2.85,-0.41 0,0 -0.07,0 -0.2,0 -0.14,0 -0.34,0 -0.61,0 -1.09,0 -2.11,-0.07 -3.06,-0.2 -0.95,-0.13 -1.83,-0.2 -2.65,-0.2 -13.57,0 -24.57,4.55 -32.99,13.64 -8.42,9.1 -12.63,22.74 -12.63,40.93 0,0.54 0.07,1.15 0.2,1.83 0.14,0.68 0.2,1.29 0.2,1.83 0,0.81 0.07,1.56 0.2,2.24 0.13,0.68 0.2,1.29 0.2,1.83l0 109.56 -30.95 0z"/>
   <path id="_10" class="fil4" d="M4247.46 1294.24c0,-16.83 2.72,-29.46 8.15,-37.88 5.43,-8.42 13.04,-14.66 22.81,-18.74l44.8 -16.7c4.62,-1.36 8.62,-3.12 12.02,-5.3 3.39,-2.17 5.09,-6.11 5.09,-11.81l0 -19.55c0,-0.27 0,-0.61 0,-1.02 0,-0.41 0,-0.74 0,-1.02 -0.27,-5.16 -2.37,-9.91 -6.31,-14.26 -3.94,-4.35 -11.34,-6.52 -22.2,-6.52 -12.49,0 -20.7,2.99 -24.64,8.96 -3.94,5.98 -5.91,15.34 -5.91,28.11l-25.25 0c0,-0.54 0,-1.02 0,-1.43 0,-0.41 -0.14,-0.89 -0.41,-1.43 0,-0.54 -0.07,-1.02 -0.2,-1.43 -0.13,-0.41 -0.2,-0.88 -0.2,-1.43 -0.27,-0.81 -0.48,-1.63 -0.61,-2.44 -0.13,-0.81 -0.2,-1.63 -0.2,-2.44 0,-17.65 5.84,-30.69 17.51,-39.1 11.68,-8.42 24.98,-12.63 39.92,-12.63 22.54,0 37.61,4.41 45.21,13.24 7.6,8.82 12.08,18.67 13.44,29.53 0.27,3.26 0.48,6.58 0.61,9.98 0.14,3.39 0.2,6.58 0.2,9.57l0 103.86c0,7.06 1.43,11.61 4.28,13.64 2.85,2.04 6.99,3.06 12.43,3.06l0 22.4c-1.09,0 -2.17,0 -3.26,0 -1.09,0 -2.31,0.14 -3.67,0.41 0,0 -0.14,0 -0.41,0 -0.27,0 -0.41,0 -0.41,0 -1.36,0 -2.72,0.07 -4.07,0.2 -1.35,0.14 -2.58,0.2 -3.67,0.2 -8.96,0 -15.81,-1.76 -20.57,-5.3 -4.75,-3.53 -7.67,-10.32 -8.76,-20.37 -4.89,9.78 -10.86,16.97 -17.92,21.59 -7.06,4.62 -14.26,7.33 -21.59,8.15 -1.09,0.27 -2.11,0.41 -3.06,0.41 -0.95,0 -1.83,0 -2.65,0 -20.91,-1.36 -34.55,-6.99 -40.93,-16.9 -6.38,-9.91 -9.57,-21.79 -9.57,-35.64zm92.86 -56.61c-2.98,1.63 -6.04,3.06 -9.16,4.28 -3.12,1.22 -6.18,2.37 -9.17,3.46 -0.54,0.27 -1.02,0.48 -1.43,0.61 -0.41,0.14 -0.88,0.34 -1.43,0.61 -10.32,3.8 -19.69,8.49 -28.1,14.05 -8.42,5.57 -12.63,15.82 -12.63,30.75 0,10.05 2.51,17.58 7.54,22.61 5.02,5.02 10.93,7.54 17.72,7.54 1.35,0 2.85,-0.14 4.48,-0.41 1.63,-0.27 3.26,-0.68 4.89,-1.22 6.24,-1.9 12.08,-5.84 17.52,-11.81 5.43,-5.97 8.69,-13.44 9.77,-22.4l0 -48.06z"/>
   <path id="_11" class="fil4" d="M4428.3 1310.94l0 -143.37 -28.11 0 0 -25.66 28.11 0 0 -50.51 30.55 0 0 50.51 31.36 0 0 25.66 -31.36 0 0 137.67c0,4.34 0.47,7.33 1.43,8.96 0.95,1.63 4.28,2.44 9.98,2.44l17.52 0 0 24.85 -28.92 0c-11.13,0 -19.01,-1.63 -23.63,-4.89 -4.61,-3.26 -6.92,-11.81 -6.92,-25.66z"/>
   <path id="_12" class="fil4" d="M4510.98 1240.48c0,-5.7 0.27,-12.56 0.81,-20.57 0.54,-8.01 1.76,-16.22 3.67,-24.64 3.53,-14.93 9.78,-28.51 18.74,-40.73 8.96,-12.22 22.67,-18.33 41.14,-18.33 20.91,0 35.57,6.31 43.99,18.94 8.42,12.63 13.85,26.54 16.29,41.75 0.81,5.97 1.36,11.88 1.63,17.72 0.27,5.84 0.41,11.2 0.41,16.09l0 15.07 -95.71 0c0,0.81 -0.07,1.77 -0.2,2.85 -0.14,1.08 -0.2,2.17 -0.2,3.26 0,0.27 0,0.54 0,0.81 0,0.27 0,0.41 0,0.41 -0.27,1.08 -0.41,2.04 -0.41,2.85 0,0.81 0,1.63 0,2.44 0,2.72 0.07,5.57 0.2,8.56 0.14,2.99 0.2,5.97 0.2,8.96 0.81,12.22 3.53,23.42 8.15,33.6 4.62,10.18 13.17,15.27 25.66,15.27 11.68,0 19.55,-2.98 23.62,-8.96 4.07,-5.97 6.52,-12.49 7.33,-19.55 0.27,-1.9 0.41,-3.74 0.41,-5.5 0,-1.76 0,-3.46 0,-5.09l0 -8.56 28.1 0 0 6.52c0,18.19 -3.46,31.91 -10.39,41.13 -6.93,9.23 -14.46,15.61 -22.61,19.15 -5.16,2.17 -10.04,3.67 -14.66,4.48 -4.61,0.81 -8.55,1.22 -11.81,1.22 -20.09,0 -34.55,-6.31 -43.38,-18.94 -8.82,-12.63 -14.73,-26.54 -17.72,-41.75 -1.63,-9.23 -2.58,-18.13 -2.85,-26.68 -0.27,-8.55 -0.41,-15.81 -0.41,-21.79zm95.72 -19.55c0,-1.36 0,-2.72 0,-4.07 0,-1.36 0,-2.72 0,-4.07 -0.27,-12.76 -2.31,-24.51 -6.11,-35.23 -3.8,-10.72 -12.22,-16.09 -25.25,-16.09 -11.13,0 -19.01,3.94 -23.62,11.81 -4.62,7.87 -7.47,16.56 -8.56,26.07 -0.54,3.8 -0.88,7.54 -1.02,11.2 -0.13,3.67 -0.2,7.13 -0.2,10.39l64.76 0z"/>
   <polygon id="_13" class="fil4" points="4752.92,1074.71 4921.54,1074.71 4921.54,1105.66 4854.34,1105.66 4854.34,1341.49 4822.98,1341.49 4822.98,1105.66 4752.92,1105.66 "/>
   <path id="_14" class="fil4" d="M4945.57 1294.24c0,-16.83 2.72,-29.46 8.15,-37.88 5.43,-8.42 13.04,-14.66 22.81,-18.74l44.8 -16.7c4.62,-1.36 8.62,-3.12 12.02,-5.3 3.39,-2.17 5.09,-6.11 5.09,-11.81l0 -19.55c0,-0.27 0,-0.61 0,-1.02 0,-0.41 0,-0.74 0,-1.02 -0.27,-5.16 -2.37,-9.91 -6.31,-14.26 -3.94,-4.35 -11.34,-6.52 -22.2,-6.52 -12.49,0 -20.7,2.99 -24.64,8.96 -3.94,5.98 -5.91,15.34 -5.91,28.11l-25.25 0c0,-0.54 0,-1.02 0,-1.43 0,-0.41 -0.14,-0.89 -0.41,-1.43 0,-0.54 -0.07,-1.02 -0.2,-1.43 -0.13,-0.41 -0.2,-0.88 -0.2,-1.43 -0.27,-0.81 -0.48,-1.63 -0.61,-2.44 -0.13,-0.81 -0.2,-1.63 -0.2,-2.44 0,-17.65 5.84,-30.69 17.51,-39.1 11.68,-8.42 24.98,-12.63 39.92,-12.63 22.54,0 37.61,4.41 45.21,13.24 7.6,8.82 12.08,18.67 13.44,29.53 0.27,3.26 0.48,6.58 0.61,9.98 0.14,3.39 0.2,6.58 0.2,9.57l0 103.86c0,7.06 1.43,11.61 4.28,13.64 2.85,2.04 6.99,3.06 12.43,3.06l0 22.4c-1.09,0 -2.17,0 -3.26,0 -1.09,0 -2.31,0.14 -3.67,0.41 0,0 -0.14,0 -0.41,0 -0.27,0 -0.41,0 -0.41,0 -1.36,0 -2.72,0.07 -4.07,0.2 -1.35,0.14 -2.58,0.2 -3.67,0.2 -8.96,0 -15.81,-1.76 -20.57,-5.3 -4.75,-3.53 -7.67,-10.32 -8.76,-20.37 -4.89,9.78 -10.86,16.97 -17.92,21.59 -7.06,4.62 -14.26,7.33 -21.59,8.15 -1.09,0.27 -2.11,0.41 -3.06,0.41 -0.95,0 -1.83,0 -2.65,0 -20.91,-1.36 -34.55,-6.99 -40.93,-16.9 -6.38,-9.91 -9.57,-21.79 -9.57,-35.64zm92.86 -56.61c-2.98,1.63 -6.04,3.06 -9.16,4.28 -3.12,1.22 -6.18,2.37 -9.17,3.46 -0.54,0.27 -1.02,0.48 -1.43,0.61 -0.41,0.14 -0.88,0.34 -1.43,0.61 -10.32,3.8 -19.69,8.49 -28.1,14.05 -8.42,5.57 -12.63,15.82 -12.63,30.75 0,10.05 2.51,17.58 7.54,22.61 5.02,5.02 10.93,7.54 17.72,7.54 1.35,0 2.85,-0.14 4.48,-0.41 1.63,-0.27 3.26,-0.68 4.89,-1.22 6.24,-1.9 12.08,-5.84 17.52,-11.81 5.43,-5.97 8.69,-13.44 9.77,-22.4l0 -48.06z"/>
   <polygon id="_15" class="fil4" points="5155.74,1240.48 5097.09,1141.91 5130.49,1141.91 5172.44,1215.22 5215.21,1141.91 5248.61,1141.91 5189.95,1240.48 5251.46,1341.49 5217.65,1341.49 5172.44,1266.14 5127.64,1341.49 5097.09,1341.49 "/>
   <polygon id="_16" class="fil4" points="5372.02,1341.49 5372.02,1074.71 5498.29,1074.71 5498.29,1102.81 5402.57,1102.81 5402.57,1187.12 5492.58,1187.12 5492.58,1215.22 5402.57,1215.22 5402.57,1341.49 "/>
   <path id="_17" class="fil4" d="M5532.91 1341.49l0 -199.57 28.11 0 0 199.57 -28.11 0zm0 -233.38l0 -37.06 28.11 0 0 37.06 -28.11 0z"/>
   <polygon id="_18" class="fil4" points="5617.22,1341.49 5617.22,1071.04 5648.17,1071.04 5648.17,1341.49 "/>
   <path id="_19" class="fil4" d="M5701.53 1341.49l0 -199.57 28.11 0 0 199.57 -28.11 0zm0 -233.38l0 -37.06 28.11 0 0 37.06 -28.11 0z"/>
   <path id="_20" class="fil4" d="M5785.02 1341.49l0 -199.57 30.96 0 0 19.55c0.81,-1.35 2.04,-2.92 3.67,-4.68 1.63,-1.77 3.39,-3.6 5.3,-5.5 4.07,-3.8 9.23,-7.26 15.48,-10.39 6.24,-3.12 13.17,-4.69 20.77,-4.69 16.83,0 29.94,3.94 39.31,11.81 9.37,7.88 14.05,21.86 14.05,41.95l0 151.52 -30.96 0 0 -134.81c0,-12.76 -1.83,-23.49 -5.5,-32.18 -3.67,-8.69 -11.07,-13.04 -22.2,-13.04 -11.67,0 -21.25,3.6 -28.71,10.8 -7.47,7.2 -11.2,17.72 -11.2,31.57l0 137.67 -30.96 0z"/>
   <path id="_21" class="fil4" d="M5961.79 1245.77c0,-5.43 0.27,-12.69 0.81,-21.79 0.54,-9.1 1.9,-18.54 4.07,-28.31 2.98,-14.94 8.76,-28.58 17.31,-40.94 8.56,-12.35 21.66,-18.53 39.31,-18.53 11.13,0 20.09,2.11 26.88,6.31 6.79,4.21 11.67,8.76 14.66,13.65 0.81,1.35 1.56,2.78 2.24,4.28 0.68,1.49 1.15,2.92 1.43,4.28l0 -22.81 30.96 0 0 162.51c0,4.07 -0.07,8.28 -0.2,12.63 -0.14,4.34 -0.34,8.69 -0.61,13.03 -1.09,19.55 -6.04,37.74 -14.87,54.58 -8.83,16.83 -27.22,25.66 -55.19,26.48 -18.19,0 -32.65,-4.89 -43.38,-14.67 -10.72,-9.78 -16.77,-21.72 -18.13,-35.84l28.1 0.41c2.99,8.15 6.59,14.32 10.8,18.53 4.21,4.21 11.74,6.31 22.61,6.31 11.67,0 20.3,-3.33 25.86,-9.98 5.57,-6.65 9.3,-13.92 11.2,-21.79 1.36,-4.34 2.17,-8.62 2.44,-12.83 0.27,-4.21 0.41,-7.81 0.41,-10.79l0 -5.7c-5.43,8.42 -11.81,14.67 -19.14,18.74 -7.33,4.07 -16.02,6.11 -26.07,6.11 -18.46,0 -31.97,-6.31 -40.53,-18.94 -8.55,-12.63 -14.32,-26.68 -17.31,-42.16 -1.63,-7.6 -2.65,-15.2 -3.06,-22.81 -0.41,-7.6 -0.61,-14.26 -0.61,-19.96zm27.7 0c0,28.24 3.39,48.47 10.18,60.69 6.79,12.22 16.43,18.33 28.92,18.33 13.85,0 23.42,-5.22 28.71,-15.68 5.3,-10.45 8.62,-21.93 9.98,-34.41 0.54,-5.7 0.88,-11.27 1.02,-16.7 0.14,-5.43 0.2,-10.45 0.2,-15.07 0,-19.55 -2.04,-37.47 -6.11,-53.76 -4.07,-16.29 -15.34,-24.44 -33.8,-24.44 -15.21,0 -25.19,7.26 -29.94,21.79 -4.75,14.53 -7.81,34.28 -9.17,59.26z"/>
   <polygon id="_22" class="fil5" points="4684.5,1341.49 4684.5,1305.24 4718.3,1305.24 4718.3,1341.49 "/>
   <polygon id="_23" class="fil5" points="5281.6,1341.49 5281.6,1305.24 5315.4,1305.24 5315.4,1341.49 "/>
  </g>
 </g>
</svg>
